<svg xmlns="http://www.w3.org/2000/svg" xmlns:xlink="http://www.w3.org/1999/xlink" data-name="Layer 1" viewBox="0 0 512 512" id="keyboard"><defs><linearGradient id="a" x1="260.621" x2="260.621" y1="7.145" y2="493.87" gradientUnits="userSpaceOnUse"><stop offset="0" stop-color="#00efd1"></stop><stop offset="1" stop-color="#00acea"></stop></linearGradient><linearGradient id="b" x1="256" x2="256" y1="7.145" y2="493.87" xlink:href="#a"></linearGradient><linearGradient id="c" x1="255.774" x2="255.774" y1="7.145" y2="493.87" xlink:href="#a"></linearGradient><linearGradient id="d" x1="137.395" x2="137.395" y1="7.145" y2="493.87" xlink:href="#a"></linearGradient><linearGradient id="e" x1="213.968" x2="213.968" y1="7.145" y2="493.87" xlink:href="#a"></linearGradient><linearGradient id="f" x1="297.58" x2="297.58" y1="7.145" y2="493.87" xlink:href="#a"></linearGradient><linearGradient id="g" x1="374.154" x2="374.154" y1="7.145" y2="493.87" xlink:href="#a"></linearGradient></defs><path fill="url(#a)" d="M187.09,66.279a104.107,104.107,0,0,1,147.062,0,8,8,0,0,0,11.314-11.314,120.126,120.126,0,0,0-169.689,0A8,8,0,1,0,187.09,66.279Z"></path><path fill="url(#a)" d="M314.051,94.38a8,8,0,0,0,5.657-13.657,83.657,83.657,0,0,0-118.173,0,8,8,0,0,0,11.313,11.314,67.638,67.638,0,0,1,95.547,0A7.974,7.974,0,0,0,314.051,94.38Z"></path><path fill="url(#a)" d="M230.748,109.936a8,8,0,1,0,11.313,11.314,26.28,26.28,0,0,1,37.121,0A8,8,0,0,0,290.5,109.936,42.294,42.294,0,0,0,230.748,109.936Z"></path><path fill="url(#b)" d="M418.139,304H268V287.763A42.566,42.566,0,0,0,225.521,245H202.494a27,27,0,0,1,0-54h23.027A42.179,42.179,0,0,0,268,148.691v-7.224a8,8,0,1,0-16,0v7.224A26.164,26.164,0,0,1,225.521,175H202.494a43,43,0,0,0,0,86h23.027A26.548,26.548,0,0,1,252,287.763V304H93.861A31.058,31.058,0,0,0,63,335.252v125.82A30.781,30.781,0,0,0,93.861,492H418.139A30.781,30.781,0,0,0,449,461.072V335.252A31.058,31.058,0,0,0,418.139,304ZM433,460.894A15.106,15.106,0,0,1,417.894,476H94.106A15.106,15.106,0,0,1,79,460.894V335.106A15.106,15.106,0,0,1,94.106,320H417.894A15.106,15.106,0,0,1,433,335.106Z"></path><path fill="url(#c)" d="M306.8,435H204.751a8,8,0,1,0,0,16H306.8a8,8,0,0,0,0-16Z"></path><path fill="url(#d)" d="M159.52,346H115.27a8,8,0,1,0,0,16h44.25a8,8,0,0,0,0-16Z"></path><path fill="url(#e)" d="M191.843,362h44.25a8,8,0,0,0,0-16h-44.25a8,8,0,1,0,0,16Z"></path><path fill="url(#f)" d="M319.705,346h-44.25a8,8,0,1,0,0,16h44.25a8,8,0,0,0,0-16Z"></path><path fill="url(#g)" d="M396.279,346h-44.25a8,8,0,0,0,0,16h44.25a8,8,0,0,0,0-16Z"></path><path fill="url(#d)" d="M159.52,391H115.27a8,8,0,1,0,0,16h44.25a8,8,0,0,0,0-16Z"></path><path fill="url(#e)" d="M244.093,399a8,8,0,0,0-8-8h-44.25a8,8,0,1,0,0,16h44.25A8,8,0,0,0,244.093,399Z"></path><path fill="url(#f)" d="M319.705,391h-44.25a8,8,0,1,0,0,16h44.25a8,8,0,0,0,0-16Z"></path><path fill="url(#g)" d="M396.279,391h-44.25a8,8,0,0,0,0,16h44.25a8,8,0,0,0,0-16Z"></path></svg>